<?xml version="1.0"?>
<svg xmlns="http://www.w3.org/2000/svg" xmlns:xlink="http://www.w3.org/1999/xlink" version="1.1" id="Capa_1" x="0px" y="0px" width="512px" height="512px" viewBox="0 0 944.884 944.884" style="enable-background:new 0 0 944.884 944.884;" xml:space="preserve" class=""><g transform="matrix(0.717731 0 0 0.717731 133.356 133.356)"><g>
	<g>
		<path d="M212.457,560.866c-42.6,0-77.258,34.65-77.258,77.25c0,42.618,34.659,77.268,77.258,77.268    c42.609,0,77.269-34.658,77.269-77.268C289.734,595.517,255.066,560.866,212.457,560.866z" data-original="#000000" class="active-path" data-old_color="#1f3a93" fill="#1f3a93"/>
		<path d="M710.497,560.866c-42.6,0-77.258,34.65-77.258,77.25c0,42.618,34.659,77.268,77.258,77.268    c42.609,0,77.268-34.658,77.268-77.268C787.773,595.517,753.105,560.866,710.497,560.866z" data-original="#000000" class="active-path" data-old_color="#1f3a93" fill="#1f3a93"/>
		<path d="M886.683,419.966l-166.654,0.476c-23.975-23.653-63.494-68.702-89.913-98.816c-11.741-13.383-21.014-23.954-25.57-28.831    l-0.178-0.185c-14.16-14.159-29.79-18.925-44.833-18.925h-16.499v-22.313c0-9.978-3.189-21.871-18.386-21.871h-15.876    c-7.24,0-19.387,2.842-19.387,21.871v22.313H274.549c-24.541,0-35.854,14.552-36.324,15.171l-93.08,127.303    c-0.552,0.755-0.954,1.48-1.266,2.099c-0.053-0.002-0.107-0.004-0.161-0.007l-0.229-0.014l-85.333,0.303l-0.269,0.006    C19.476,420.056,0,442.271,0,484.575v89.454c0,32.087,26.104,58.191,58.191,58.191h45.541c6.175,0,11.397-4.636,12.146-10.781    c2.807-23.015,14.307-44.374,32.382-60.146c18.14-15.827,41.216-24.544,64.978-24.544c48.061,0,88.628,36.394,94.363,84.652    c0.733,6.167,5.958,10.816,12.15,10.816h282.483c6.188,0,11.411-4.646,12.148-10.805c5.789-48.268,46.786-84.665,95.362-84.665    c48.584,0,89.582,36.397,95.363,84.662c0.736,6.161,5.96,10.808,12.148,10.808h69.435c32.087,0,58.191-26.104,58.191-58.19    v-89.451c0.005-15.485-6.054-31.491-16.625-43.914C916.903,427.316,902.145,419.966,886.683,419.966z M486.099,305.859    c4.873-0.099,60.527,0.287,72.234,0.287c11.717,0,17.135-0.505,38.034,26.247l63.32,74.68c5.012,7.369,0.475,16.887-4.744,16.887    c-52.698,0-146.056-0.397-173.374-0.52c-4.267-0.02-7.705-3.486-7.698-7.752l0.174-97.489    C474.045,318.2,472.6,306.126,486.099,305.859z M195.59,406.848c16.651-24.396,30.086-43.259,52.396-76.861    c17.373-26.178,21.374-24.177,33.062-24.177c8.727,0,133.881,0.485,137.496,0.386c15.303-0.386,15.472,12.341,15.472,12.341    l-0.35,97.187c-0.015,4.256-3.457,7.699-7.713,7.711c-38.206,0.093-206.493,1.19-221.904,0.527    C183.452,423.074,195.47,407.022,195.59,406.848z M30.501,481.574H15.039c0.306-12.582,2.576-22.508,6.982-30h8.481    c2.761,0,5,2.239,5,5v20C35.501,479.335,33.263,481.574,30.501,481.574z M65.501,506.574c0,2.761-2.239,5-5,5h-20    c-2.761,0-5-2.239-5-5v-20c0-2.761,2.239-5,5-5h20c2.761,0,5,2.239,5,5V506.574z M90.501,481.574h-20c-2.761,0-5-2.239-5-5v-20    c0-2.761,2.239-5,5-5h20c2.761,0,5,2.239,5,5v20C95.501,479.335,93.263,481.574,90.501,481.574z M125.501,506.574    c0,2.761-2.239,5-5,5h-20c-2.761,0-5-2.239-5-5v-20c0-2.761,2.239-5,5-5h20c2.761,0,5,2.239,5,5V506.574z M150.501,481.574h-20    c-2.761,0-5-2.239-5-5v-20c0-2.761,2.239-5,5-5h20c2.761,0,5,2.239,5,5v20C155.501,479.335,153.263,481.574,150.501,481.574z     M185.501,506.574c0,2.761-2.239,5-5,5h-20c-2.761,0-5-2.239-5-5v-20c0-2.761,2.239-5,5-5h20c2.761,0,5,2.239,5,5V506.574z     M210.501,481.574h-20c-2.761,0-5-2.239-5-5v-20c0-2.761,2.239-5,5-5h20c2.761,0,5,2.239,5,5v20    C215.501,479.335,213.263,481.574,210.501,481.574z M245.501,506.574c0,2.761-2.239,5-5,5h-20c-2.761,0-5-2.239-5-5v-20    c0-2.761,2.239-5,5-5h20c2.761,0,5,2.239,5,5V506.574z M270.501,481.574h-20c-2.761,0-5-2.239-5-5v-20c0-2.761,2.239-5,5-5h20    c2.761,0,5,2.239,5,5v20C275.501,479.335,273.263,481.574,270.501,481.574z M305.501,506.574c0,2.761-2.239,5-5,5h-20    c-2.761,0-5-2.239-5-5v-20c0-2.761,2.239-5,5-5h20c2.761,0,5,2.239,5,5V506.574z M330.501,481.574h-20c-2.761,0-5-2.239-5-5v-20    c0-2.761,2.239-5,5-5h20c2.761,0,5,2.239,5,5v20C335.501,479.335,333.263,481.574,330.501,481.574z M365.501,506.574    c0,2.761-2.239,5-5,5h-20c-2.761,0-5-2.239-5-5v-20c0-2.761,2.239-5,5-5h20c2.761,0,5,2.239,5,5V506.574z M390.501,481.574h-20    c-2.761,0-5-2.239-5-5v-20c0-2.761,2.239-5,5-5h20c2.761,0,5,2.239,5,5v20C395.501,479.335,393.263,481.574,390.501,481.574z     M425.501,506.574c0,2.761-2.239,5-5,5h-20c-2.761,0-5-2.239-5-5v-20c0-2.761,2.239-5,5-5h20c2.761,0,5,2.239,5,5V506.574z     M450.501,481.574h-20c-2.761,0-5-2.239-5-5v-20c0-2.761,2.239-5,5-5h20c2.761,0,5,2.239,5,5v20    C455.501,479.335,453.263,481.574,450.501,481.574z M485.501,506.574c0,2.761-2.239,5-5,5h-20c-2.761,0-5-2.239-5-5v-20    c0-2.761,2.239-5,5-5h20c2.761,0,5,2.239,5,5V506.574z M510.501,481.574h-20c-2.761,0-5-2.239-5-5v-20c0-2.761,2.239-5,5-5h20    c2.761,0,5,2.239,5,5v20C515.501,479.335,513.263,481.574,510.501,481.574z M545.501,506.574c0,2.761-2.239,5-5,5h-20    c-2.761,0-5-2.239-5-5v-20c0-2.761,2.239-5,5-5h20c2.761,0,5,2.239,5,5V506.574z M570.501,481.574h-20c-2.761,0-5-2.239-5-5v-20    c0-2.761,2.239-5,5-5h20c2.761,0,5,2.239,5,5v20C575.501,479.335,573.263,481.574,570.501,481.574z M605.501,506.574    c0,2.761-2.239,5-5,5h-20c-2.761,0-5-2.239-5-5v-20c0-2.761,2.239-5,5-5h20c2.761,0,5,2.239,5,5V506.574z M630.501,481.574h-20    c-2.761,0-5-2.239-5-5v-20c0-2.761,2.239-5,5-5h20c2.761,0,5,2.239,5,5v20C635.501,479.335,633.263,481.574,630.501,481.574z     M665.501,506.574c0,2.761-2.239,5-5,5h-20c-2.761,0-5-2.239-5-5v-20c0-2.761,2.239-5,5-5h20c2.761,0,5,2.239,5,5V506.574z     M690.501,481.574h-20c-2.761,0-5-2.239-5-5v-20c0-2.761,2.239-5,5-5h20c2.761,0,5,2.239,5,5v20    C695.501,479.335,693.263,481.574,690.501,481.574z M725.501,506.574c0,2.761-2.239,5-5,5h-20c-2.761,0-5-2.239-5-5v-20    c0-2.761,2.239-5,5-5h20c2.761,0,5,2.239,5,5V506.574z M750.501,481.574h-20c-2.761,0-5-2.239-5-5v-20c0-2.761,2.239-5,5-5h20    c2.761,0,5,2.239,5,5v20C755.501,479.335,753.263,481.574,750.501,481.574z M785.501,506.574c0,2.761-2.239,5-5,5h-20    c-2.761,0-5-2.239-5-5v-20c0-2.761,2.239-5,5-5h20c2.761,0,5,2.239,5,5V506.574z M810.501,481.574h-20c-2.761,0-5-2.239-5-5v-20    c0-2.761,2.239-5,5-5h20c2.761,0,5,2.239,5,5v20C815.501,479.335,813.263,481.574,810.501,481.574z M845.501,506.574    c0,2.761-2.239,5-5,5h-20c-2.761,0-5-2.239-5-5v-20c0-2.761,2.239-5,5-5h20c2.761,0,5,2.239,5,5V506.574z M870.501,481.574h-20    c-2.761,0-5-2.239-5-5v-20c0-2.761,2.239-5,5-5h20c2.761,0,5,2.239,5,5v20C875.501,479.335,873.263,481.574,870.501,481.574z     M905.501,506.574c0,2.761-2.239,5-5,5h-20c-2.761,0-5-2.239-5-5v-20c0-2.761,2.239-5,5-5h20c2.761,0,5,2.239,5,5V506.574z     M910.501,481.574c-2.761,0-5-2.239-5-5v-20c0-2.761,2.239-5,5-5h7.305c7.023,8.735,11.286,19.447,11.97,30H910.501z" data-original="#000000" class="active-path" data-old_color="#1f3a93" fill="#1f3a93"/>
	</g>
</g></g> </svg>
